<?xml version="1.0" encoding="UTF-8"?><svg id="a" xmlns="http://www.w3.org/2000/svg" viewBox="0 0 142.43 79.88"><path d="M6.1,60.47h3.66v-.63h-4.38v-1.02c1.2-.11,2.29-.26,3.33-.47l.14-.03-.35-.66-.08.02c-2.33.47-4.7.71-7.04.71-.05,0-.1,0-.16,0h-.14s.19.68.19.68h.08c1.17-.02,2.29-.08,3.35-.18v.96H.33v.63h3.64c-.39.41-.89.81-1.5,1.2-.44.28-.84.51-1.22.7-.38.19-.76.35-1.14.49l-.11.04.3.61.09-.03c.84-.31,1.72-.77,2.62-1.38.36-.25.71-.52,1.03-.82.26-.23.48-.45.67-.67v1.91h.68v-1.92c.9,1.02,2.3,1.96,4.14,2.78l.07.03.54-.59-.15-.06c-1.73-.7-3.04-1.47-3.89-2.3Z" fill="#fff"/><path d="M2.08,67.6h.68v-.7h4.62v.7h.68v-4.93H2.08v4.93ZM2.76,64.42v-1.12h4.62v1.12H2.76ZM7.38,65.06v1.2H2.76v-1.2h4.62Z" fill="#fff"/><path d="M15.01,59.95l.09.09.42-.56-.07-.07c-.51-.48-1.06-.9-1.68-1.3l-.09-.05-.39.51.09.06c.54.36,1.08.8,1.62,1.32Z" fill="#fff"/><path d="M15.26,63.28l-.56-.39-.04.14c-.42,1.42-1.01,2.75-1.75,3.93l-.05.09.61.43.06-.11c.39-.71.71-1.37.99-2.01.29-.68.53-1.36.73-2.02l.02-.08Z" fill="#fff"/><path d="M13.74,61.61c.3.27.59.56.81.78l.09.09.42-.55-.06-.07c-.53-.56-1.1-1.04-1.68-1.44l-.08-.06-.39.5.09.07c.28.21.55.44.82.67Z" fill="#fff"/><path d="M20.53,61.77h2.22v-.63h-2.38v-1.33h1.84v-.63h-1.84v-1.59h-.68v1.59h-1.74v-1.59h-.68v1.59h-1.55v.63h1.55v1.33h-2.17v.63h2.08c-.16.31-.37.64-.62.98-.38.48-.84.93-1.39,1.32l-.1.08.5.49.07-.06c.32-.25.58-.47.81-.7.17-.17.34-.35.51-.55v2.83c0,.22.02.38.07.53.05.14.13.24.24.31.05.08.22.14.86.18.57.03,1.35.05,2.28.05.48,0,.84-.03,1.1-.1.27-.07.43-.2.47-.37.02-.05.04-.14.08-.42v-.04c.02-.22.06-.54.09-.97v-.07s-.71-.35-.71-.35v.16c-.05.82-.09,1.21-.1,1.25-.06.11-.27.23-.92.23-2.25,0-2.63-.09-2.69-.13-.03-.03-.05-.06-.07-.11-.01-.03-.02-.08-.01-.18v-1.07h3.09v-2.05c.46.46,1,.89,1.63,1.28l.08.05.53-.59-.12-.07c-1.02-.57-1.8-1.22-2.32-1.92ZM19.69,59.8v1.33h-1.74v-1.33h1.74ZM17.65,64.42v-1.07h2.41v1.07h-2.41ZM17.43,62.72c.19-.3.37-.61.52-.95h1.79c.2.33.45.64.72.95h-3.03Z" fill="#fff"/><path d="M35.03,65.32c-.04.38-.07.67-.1.89-.04.23-.07.4-.09.47-.02.04-.06.12-.11.12-.07,0-.15-.06-.25-.18-.12-.15-.24-.37-.38-.67-.09-.16-.17-.34-.23-.52-.07-.19-.13-.38-.18-.57h0c.52-.74.95-1.96,1.3-3.64l.02-.1-.71-.18-.02.11c-.12.65-.27,1.21-.45,1.74-.13.4-.27.76-.41,1.06-.07-.31-.13-.63-.18-.98-.07-.37-.12-.77-.17-1.28-.04-.43-.07-.88-.09-1.37h2.52v-.63h-1.03l.52-.36-.04-.09c-.13-.25-.28-.49-.43-.73-.13-.2-.29-.41-.5-.67l-.06-.08-.55.38.07.09c.15.2.32.44.48.69.15.24.28.49.39.71l.03.06h-1.41c-.03-.56-.05-1.19-.04-1.93v-.11s-.72,0-.72,0v.11c-.01.73,0,1.36.03,1.93h-3.08v3.1c0,.45-.04.88-.09,1.29l-.09-.57-.14.08c-.32.19-.67.36-1.05.51v-2.76h1.22v-.63h-1.22v-2.71h-.68v2.71h-1.29v.63h1.29v3.03c-.2.08-.4.16-.62.23-.22.08-.49.17-.75.23l-.14.03.35.66.09-.03c.39-.12.83-.28,1.39-.53.44-.18.93-.41,1.59-.73l.03-.02s0,.03,0,.05c-.07.44-.18.82-.31,1.13-.14.33-.32.63-.52.9-.2.26-.43.5-.69.73l-.08.07.43.54.09-.07c.27-.23.52-.49.76-.79.24-.31.44-.64.6-.98.33-.72.5-1.71.51-2.94v-.49h1.49c-.03.53-.06,1.11-.1,1.55-.04.44-.09.74-.12.89-.05.14-.14.31-.3.31-.07,0-.19,0-.37-.04-.17-.03-.34-.09-.54-.16l-.15-.06v.74l.07.03c.21.08.43.14.63.17.17.04.34.06.45.05.17.02.33-.04.45-.16.12-.09.22-.25.32-.47.07-.2.14-.56.21-1.17.05-.51.09-1.18.14-2.18v-.11s-2.17,0-2.17,0v-1.41h2.44c.07,1.11.18,2.12.35,2.99.05.31.09.55.15.79.05.24.11.46.18.67-.52.73-1.21,1.4-2.12,2.03l-.09.07.42.54.08-.06c.79-.52,1.44-1.09,1.97-1.73.12.36.26.67.43.95.39.68.74,1.02,1.09,1.02.23,0,.43-.09.59-.28.07-.13.14-.32.2-.58.07-.26.12-.58.16-.99v-.06s-.62-.5-.62-.5l-.03.25Z" fill="#fff"/><path d="M44.14,58.98l-.05-.09c-.14-.24-.31-.49-.51-.75-.17-.22-.35-.44-.58-.69l-.06-.07-.6.41.08.09c.35.39.65.79.89,1.2h-4.88v.72h4.67v1.7h-3.5v5.01h.76v-4.29h2.74v5.37h.76v-5.37h2.87v3.14c0,.22-.05.3-.08.32-.01.01-.04.03-.11.03-.42.02-.91-.1-1.46-.32l-.16-.07.06.74.06.02c.24.1.5.17.79.22.23.05.48.08.72.08.62,0,.94-.33.94-.94v-3.94h-3.63v-1.7h4.67v-.72h-4.53l.15-.11Z" fill="#fff"/><path d="M59.81,65.78c-.45-.41-.84-.85-1.17-1.34-.36-.47-.66-.98-.91-1.54-.23-.52-.4-1.05-.51-1.63h3.75v-.76h-4.66c.1-.78.2-1.7.28-2.81v-.12s-.75,0-.75,0v.1c-.04.36-.07.71-.1,1.03-.02.18-.03.35-.05.51-.05.42-.1.86-.16,1.28h-3.87v.76h3.75c-.11.56-.25,1.09-.41,1.58-.17.5-.35.91-.53,1.22-.69,1.13-1.77,2.09-3.21,2.88l-.13.07.59.54.07-.04c.8-.44,1.47-.9,2.04-1.4.57-.52,1.03-1.08,1.38-1.68.4-.69.74-1.75.99-3.16h.23c.13.68.32,1.28.56,1.85.28.65.59,1.21.96,1.69.38.58.78,1.08,1.24,1.52.44.43.94.83,1.54,1.22l.08.05.57-.67-.11-.07c-.55-.33-1.03-.69-1.45-1.09Z" fill="#fff"/><path d="M65.23,62.6h7.79v1.08h.67v-1.71h-.69l.2-3.89h-2.56v.63h1.86l-.04.66h-1.86v.64h1.83l-.03.62h-1.97v.63h1.94l-.04.7h-2.11l.37-.4-.09-.07c-.13-.11-.26-.22-.4-.35-.1-.08-.2-.17-.3-.26.19-.19.38-.42.59-.7l.05-.07-.23-.25.37-.41-.09-.07c-.13-.11-.24-.21-.37-.32-.09-.07-.18-.14-.27-.23.1-.1.21-.22.32-.34.14-.15.27-.32.38-.47l.05-.07-.41-.46-.08.11c-.21.29-.45.56-.74.84-.28-.2-.59-.41-.99-.67l-.08-.05-.39.45.1.07c.21.14.42.29.64.44l.23.16c-.16.12-.29.2-.43.28-.18.12-.38.23-.59.31h-.01s0-.05,0-.05h-2v-.38c.29-.05.61-.13.95-.24.33-.1.65-.23.98-.39l.11-.05-.37-.6-.09.04c-.7.31-1.44.52-2.18.62h-.1s.08,3.59.08,3.59h-.7v1.71h.68v-1.08ZM69.38,59.23c.18.17.37.35.57.53-.19.27-.4.51-.63.73-.13-.09-.26-.18-.39-.27-.16-.11-.32-.22-.49-.33l-.05-.03c.15-.08.29-.16.45-.25.2-.12.38-.24.55-.38ZM69.31,61.29c.11.1.21.2.33.3.12.12.26.26.39.38h-1.82c.38-.17.74-.39,1.1-.68ZM67.86,59.65l.22.36.09-.04s.08-.04.12-.06l-.33.4.31.21c.18.12.36.25.55.38-.29.22-.62.41-.99.58l-.12.05.28.44h-2.1v-.74s2.04,0,2.04,0v-.63h-2.06v-.57s1.99,0,1.99,0v-.37Z" fill="#fff"/><path d="M74.03,64.93h-4.65s0-.02,0-.02v-.02c.53-.16,1.01-.33,1.45-.53.51-.21.95-.44,1.36-.69l.05-.03v-.54h-6.19v.63h4.75c-.54.23-1.12.42-1.72.58,0-.01-.02-.03-.02-.05l-.02-.03s-.05-.07-.07-.11l-.04-.11-.59.27.06.1c.03.05.06.1.09.16.03.06.07.12.1.16.04.07.07.15.1.22h-4.48v.63h4.67l.05.34c.02.15.03.31.04.46,0,.13-.02.25-.04.33-.02.07-.04.1-.04.1-.03.02-.07.03-.11.04-.05.01-.09.02-.12.02-.33,0-.68-.08-1.09-.25l-.16-.07.06.75.07.02c.21.07.41.12.62.16.23.04.43.06.61.06.24,0,.44-.06.6-.19.18-.15.26-.47.26-.98v-.07c-.01-.11-.03-.24-.04-.38v-.06c-.02-.09-.04-.19-.05-.3h4.47v-.63Z" fill="#fff"/><path d="M6.07,75.68c-.09.18-.21.36-.35.53-.14.17-.3.33-.48.47-.18.14-.37.25-.58.34-.2.09-.42.13-.64.13-.37,0-.72-.07-1.04-.19-.32-.13-.6-.32-.83-.56s-.42-.54-.55-.9c-.13-.35-.2-.75-.2-1.2s.07-.85.2-1.21c.13-.35.32-.66.56-.91s.52-.44.83-.57c.32-.13.66-.2,1.03-.2.42,0,.8.12,1.13.35.33.24.63.62.89,1.13l.03.06.57-.38-.03-.05c-.14-.22-.3-.43-.49-.64s-.41-.38-.65-.54c-.24-.16-.51-.28-.81-.38-.3-.09-.62-.14-.97-.14s-.71.04-1.04.13c-.32.08-.63.2-.9.36-.27.15-.52.34-.74.55-.22.21-.4.45-.55.71-.15.26-.27.53-.35.83-.08.29-.12.59-.12.9,0,.46.09.91.26,1.32.17.41.42.78.74,1.09.32.31.7.56,1.14.74.44.18.94.27,1.49.27.38,0,.72-.05,1.03-.14.3-.09.58-.22.83-.38.24-.16.46-.34.64-.54.18-.2.35-.42.48-.64l.03-.05-.56-.36-.03.06Z" fill="#fff"/><path d="M8.85,70.15c-.06-.06-.12-.1-.2-.13-.15-.06-.33-.06-.48,0-.08.03-.14.08-.2.13-.06.06-.1.12-.13.2-.03.07-.05.16-.05.24s.02.17.05.24c.03.07.08.14.13.2.06.06.12.1.2.13.07.03.16.05.24.05s.17-.02.24-.05c.08-.03.14-.08.2-.13.06-.06.1-.12.13-.2.03-.08.05-.16.05-.24s-.02-.17-.05-.24c-.03-.07-.08-.14-.13-.2Z" fill="#fff"/><polygon points="7.87 72.66 7.87 77.57 8.97 77.57 8.97 72.36 8.62 72.36 7.87 72.66" fill="#fff"/><path d="M12.86,76.67c-.07.08-.14.14-.23.19-.08.05-.17.07-.27.07-.07,0-.13-.01-.19-.04-.06-.02-.11-.06-.15-.1-.04-.04-.08-.1-.1-.15-.02-.06-.04-.12-.04-.19v-3.47h1.11v-.54h-1.11v-1.7h-.34l-.77.3v1.42l-.83.23h-.04v.3h.87v3.47c0,.18.02.34.06.49.04.15.1.28.19.39.09.11.19.2.33.26.13.06.28.09.46.09.33,0,.61-.07.84-.21.22-.14.41-.33.55-.57l.03-.05-.34-.22-.03.04Z" fill="#fff"/><path d="M16.46,76l-1.89-3.54h-1.26l2.59,4.83-.33.73c-.04.09-.09.19-.14.29-.06.1-.12.19-.19.28-.07.08-.15.15-.24.21-.08.05-.17.08-.26.08-.08,0-.15,0-.22-.02-.06-.02-.13-.04-.18-.06-.06-.02-.11-.05-.15-.07-.05-.03-.09-.05-.14-.07l-.05-.02-.44.98-.02.04.03.03c.08.06.18.11.3.15.12.04.24.06.36.06.16,0,.33-.03.5-.09.17-.06.34-.15.5-.27.16-.12.31-.27.45-.46.14-.18.27-.4.38-.65l2.59-5.96h-.66l-1.55,3.54Z" fill="#fff"/><path d="M26.06,75.24c0,.27-.05.52-.14.76-.09.23-.22.44-.39.62-.17.18-.37.32-.61.42-.24.1-.51.15-.81.15s-.57-.05-.81-.15c-.24-.1-.45-.24-.62-.42-.17-.18-.3-.38-.39-.62-.09-.24-.14-.49-.14-.76v-4.26h-1.2v4.24c0,.34.06.67.18.98.12.3.3.57.54.8.24.23.53.41.88.54.35.13.75.2,1.21.2.51,0,.95-.07,1.31-.2.36-.13.67-.31.9-.54.24-.22.41-.49.52-.79.11-.3.16-.62.16-.96v-4.26h-.59v4.26Z" fill="#fff"/><path d="M31.87,72.82c-.12-.14-.26-.26-.42-.34-.16-.08-.33-.12-.52-.12-.34,0-.69.09-1.02.26-.3.15-.58.38-.86.67v-.92h-.34l-.77.3v4.91h1.11v-3.74c.1-.1.21-.19.32-.27.12-.09.24-.16.36-.22.12-.06.24-.11.35-.15.24-.07.44-.07.61,0,.09.04.17.1.23.18.07.08.12.18.16.3.04.12.06.26.06.42v3.47h1.11v-3.64c0-.21-.03-.42-.1-.61-.07-.19-.16-.36-.28-.5Z" fill="#fff"/><polygon points="33.73 72.66 33.73 77.57 34.83 77.57 34.83 72.36 34.48 72.36 33.73 72.66" fill="#fff"/><path d="M34.71,70.15c-.06-.06-.12-.1-.2-.13-.15-.06-.33-.06-.48,0-.08.03-.14.08-.2.13-.06.06-.1.12-.13.2-.03.07-.05.16-.05.24s.02.17.05.24c.03.07.08.14.13.2.06.06.12.1.2.13.07.03.16.05.24.05s.17-.02.24-.05c.08-.03.14-.08.2-.13.06-.06.1-.12.13-.2.03-.08.05-.16.05-.24s-.02-.17-.05-.24c-.03-.07-.08-.14-.13-.2Z" fill="#fff"/><polygon points="38.34 76.16 36.6 72.45 35.44 72.45 37.84 77.59 37.85 77.62 38.27 77.62 40.54 72.53 40.57 72.45 40 72.45 38.34 76.16" fill="#fff"/><path d="M45.33,75.62c-.04.15-.12.3-.23.44-.11.14-.24.27-.4.38-.16.11-.33.2-.53.27-.19.07-.39.1-.6.1-.25,0-.48-.06-.68-.17-.21-.11-.39-.27-.54-.47-.15-.2-.27-.45-.36-.73-.08-.26-.12-.55-.13-.86h3.73v-.06c0-.28-.06-.56-.17-.82-.11-.26-.27-.49-.47-.69-.2-.2-.45-.36-.72-.48-.28-.12-.59-.18-.92-.18-.38,0-.73.07-1.03.21-.31.14-.57.34-.79.6-.22.25-.39.56-.51.9-.12.35-.18.73-.18,1.13,0,.34.07.66.2.96.13.3.31.57.54.79.23.22.49.4.8.53.3.13.63.19.98.19.26,0,.53-.05.78-.15.26-.1.5-.24.71-.41.22-.17.41-.37.57-.6.16-.23.28-.48.36-.74v-.05s-.38-.17-.38-.17l-.02.06ZM41.88,74.06c.02-.16.06-.31.11-.45.07-.16.15-.29.26-.41.1-.11.22-.2.35-.27.28-.14.62-.12.89,0,.15.06.28.15.39.27.11.11.2.25.26.4.06.14.09.29.09.45h-2.36Z" fill="#fff"/><path d="M49.89,72.42c-.31-.09-.64-.08-.95.02-.16.05-.32.12-.46.22-.15.09-.28.2-.4.33-.08.09-.15.18-.22.28l-.12-.91h-.2l-.77.29v4.92h1.1v-3.53c.07-.14.14-.26.23-.36.09-.1.18-.19.29-.26.1-.07.21-.12.33-.15.19-.06.38-.06.58-.04.07,0,.14.02.22.04.07.02.14.06.21.1.07.04.13.1.19.16l.06.07.36-.96-.04-.02c-.13-.09-.27-.15-.42-.19Z" fill="#fff"/><path d="M53.91,75.11c-.14-.12-.3-.23-.48-.32-.17-.09-.35-.18-.54-.26l-.53-.23c-.17-.07-.32-.15-.46-.24-.13-.08-.24-.18-.32-.29-.08-.1-.11-.22-.11-.36,0-.08.02-.16.06-.23.04-.07.1-.14.18-.2.08-.06.17-.1.28-.13.11-.03.24-.05.38-.05.25,0,.49.07.71.22.23.15.43.37.62.67l.04.06.46-.41-.03-.04c-.15-.2-.3-.36-.44-.48-.14-.13-.28-.22-.43-.29-.14-.07-.29-.11-.44-.14-.15-.02-.31-.03-.47-.03-.25,0-.49.04-.7.11-.21.07-.4.17-.56.3s-.28.28-.37.46c-.09.18-.13.37-.13.58,0,.22.04.41.12.58.08.16.18.31.31.43.13.12.28.23.44.32.16.09.32.17.49.26.17.08.33.16.49.23.15.07.3.15.42.24.12.09.22.18.29.29.07.1.11.23.11.37,0,.09-.02.17-.06.25-.04.08-.1.16-.18.22-.08.06-.17.12-.28.15-.22.08-.51.07-.74,0-.12-.03-.23-.09-.34-.16-.11-.07-.22-.17-.33-.28-.11-.12-.22-.26-.34-.43l-.04-.05-.49.44.03.04c.15.2.31.36.47.48.16.12.32.22.48.29.16.07.32.11.48.14.16.02.31.03.46.03.33,0,.61-.04.86-.12.24-.08.45-.19.61-.33.16-.14.29-.31.37-.5.08-.19.12-.4.12-.62s-.04-.41-.13-.57c-.09-.16-.2-.31-.34-.43Z" fill="#fff"/><path d="M56.49,70.15c-.06-.06-.12-.1-.2-.13-.15-.06-.33-.06-.48,0-.08.03-.14.08-.2.13-.06.06-.1.12-.13.2-.03.07-.05.16-.05.24s.02.17.05.24c.03.07.08.14.13.2.06.06.12.1.2.13.07.03.16.05.24.05s.17-.02.24-.05c.08-.03.14-.08.2-.13.06-.06.1-.12.13-.2.03-.08.05-.16.05-.24s-.02-.17-.05-.24c-.03-.07-.08-.14-.13-.2Z" fill="#fff"/><polygon points="55.51 72.66 55.51 77.57 56.61 77.57 56.61 72.36 56.26 72.36 55.51 72.66" fill="#fff"/><path d="M60.5,76.67c-.07.08-.14.14-.23.19-.08.05-.17.07-.27.07-.07,0-.13-.01-.19-.04-.06-.02-.11-.06-.15-.1-.04-.04-.08-.1-.1-.15-.02-.06-.04-.12-.04-.19v-3.47h1.11v-.54h-1.11v-1.7h-.34l-.77.3v1.42l-.83.23h-.04v.3h.87v3.47c0,.18.02.34.06.49.04.15.1.28.19.39.09.11.19.2.33.26.13.06.28.09.46.09.33,0,.61-.07.84-.21.22-.14.41-.33.55-.57l.03-.05-.34-.22-.03.04Z" fill="#fff"/><path d="M64.1,76l-1.89-3.54h-1.26l2.59,4.83-.33.73c-.04.09-.09.19-.14.29-.06.1-.12.19-.19.28-.07.08-.15.15-.24.21-.08.05-.17.08-.26.08-.08,0-.15,0-.22-.02-.06-.02-.13-.04-.18-.06-.06-.02-.11-.05-.15-.07-.05-.03-.09-.05-.14-.07l-.05-.02-.44.98-.02.04.03.03c.08.06.18.11.3.15.12.04.24.06.36.06.16,0,.33-.03.5-.09.17-.06.34-.15.5-.27.16-.12.31-.27.45-.46.14-.18.27-.4.38-.65l2.59-5.96h-.66l-1.55,3.54Z" fill="#fff"/><path d="M73.19,73.09c-.24-.23-.53-.41-.85-.53s-.69-.19-1.07-.19-.76.07-1.08.21c-.33.14-.62.34-.85.58-.24.25-.43.54-.56.87s-.2.69-.2,1.06.07.7.2,1.01c.13.31.32.59.56.82.24.23.53.42.85.56.33.14.69.2,1.08.2s.75-.07,1.08-.22c.33-.15.61-.35.85-.6.24-.25.43-.55.56-.89s.2-.71.2-1.09c0-.35-.07-.68-.2-.98-.13-.3-.32-.57-.56-.8ZM71.96,77.06c-.15.09-.32.14-.51.14-.26,0-.5-.07-.7-.2-.21-.13-.38-.32-.53-.55-.14-.23-.26-.51-.33-.82-.07-.31-.11-.65-.11-1.01,0-.24.04-.48.1-.69.07-.22.16-.41.28-.57.11-.16.25-.29.4-.38.15-.09.3-.14.45-.14.31,0,.58.07.79.2.22.13.39.31.53.54.14.23.24.5.3.81.06.31.09.65.09,1.01,0,.24-.03.48-.1.7-.06.22-.15.41-.27.58-.11.16-.25.3-.4.39Z" fill="#fff"/><path d="M78.66,70.49c-.11-.13-.24-.23-.39-.32-.14-.08-.3-.15-.47-.2-.42-.12-.88-.09-1.27.09-.23.11-.44.25-.61.44-.17.18-.31.4-.41.64s-.15.51-.15.79v.52h-1.04v.54h1.04v4.58h1.11v-4.58h1.33v-.54h-1.33v-1.12c0-.12.02-.24.05-.36.03-.11.08-.22.14-.3.06-.09.13-.16.21-.21.08-.05.17-.08.27-.08.16,0,.29.03.4.1.11.06.2.15.27.25.07.1.13.22.18.35.05.13.09.26.13.39l.02.08.83-.6-.02-.04c-.07-.15-.16-.3-.27-.42Z" fill="#fff"/><polygon points="85.41 73.93 82.27 73.93 82.27 70.98 81.07 70.98 81.07 77.57 82.27 77.57 82.27 74.46 85.41 74.46 85.41 77.57 86.61 77.57 86.61 70.98 85.41 70.98 85.41 73.93" fill="#fff"/><path d="M92.31,73.09c-.24-.23-.53-.41-.85-.53s-.69-.19-1.07-.19-.76.07-1.08.21c-.33.14-.62.34-.85.58-.24.25-.43.54-.56.87s-.2.69-.2,1.06.07.7.2,1.01c.13.31.32.59.56.82.24.23.53.42.85.56.33.14.69.2,1.08.2s.75-.07,1.08-.22c.33-.15.61-.35.85-.6.24-.25.43-.55.56-.89s.2-.71.2-1.09c0-.35-.07-.68-.2-.98-.13-.3-.32-.57-.56-.8ZM91.08,77.06c-.15.09-.32.14-.51.14-.26,0-.5-.07-.7-.2-.21-.13-.38-.32-.53-.55-.14-.23-.26-.51-.33-.82-.07-.31-.11-.65-.11-1.01,0-.24.04-.48.1-.69.07-.22.16-.41.28-.57.11-.16.25-.29.4-.38.15-.09.3-.14.45-.14.31,0,.58.07.79.2.22.13.39.31.53.54.14.23.24.5.3.81.06.31.09.65.09,1.01,0,.24-.03.48-.1.7-.06.22-.15.41-.27.58-.11.16-.25.3-.4.39Z" fill="#fff"/><path d="M98.04,72.82c-.12-.14-.26-.26-.42-.34-.16-.08-.33-.12-.52-.12-.34,0-.69.09-1.02.26-.3.15-.58.38-.86.67v-.92h-.34l-.77.3v4.91h1.11v-3.74c.1-.1.21-.19.32-.27.12-.09.24-.16.36-.22.12-.06.24-.11.35-.15.24-.07.44-.07.61,0,.09.04.17.1.23.18.07.08.12.18.16.3.04.12.06.26.06.42v3.47h1.11v-3.64c0-.21-.03-.42-.1-.61-.07-.19-.16-.36-.28-.5Z" fill="#fff"/><path d="M102.96,72.58c-.1-.04-.21-.08-.34-.12-.13-.03-.27-.06-.41-.08-.15-.02-.3-.03-.45-.03-.31,0-.61.05-.88.14-.27.1-.51.23-.71.4-.2.17-.37.37-.48.59-.12.23-.17.47-.17.72,0,.34.1.65.3.92.17.23.4.42.69.56-.1.04-.19.1-.28.16-.12.08-.24.18-.33.28-.1.1-.17.21-.23.33-.06.12-.09.23-.09.34,0,.08.02.15.06.22.04.07.09.13.15.18.06.05.13.1.22.15.05.03.11.05.17.07-.1.08-.2.16-.31.25-.13.11-.25.22-.36.34-.11.12-.2.24-.27.37-.07.13-.11.27-.11.42,0,.17.06.32.16.46.11.13.27.25.48.34.21.09.47.16.79.21.31.05.68.07,1.09.07.47,0,.89-.05,1.26-.14.37-.09.69-.22.95-.39.26-.17.46-.38.6-.62s.21-.52.21-.82c0-.17-.03-.32-.08-.46-.05-.14-.14-.26-.27-.36-.12-.1-.29-.18-.49-.24-.2-.06-.46-.09-.75-.11l-1.85-.08c-.19-.01-.34-.04-.44-.1-.09-.05-.13-.11-.13-.19,0-.09.03-.19.09-.28.06-.09.12-.17.2-.24.09.03.2.05.32.07.14.02.27.03.4.03.35,0,.67-.04.96-.13.29-.08.54-.21.75-.36.21-.16.37-.35.49-.57.12-.22.18-.47.18-.74,0-.17-.03-.35-.09-.52-.05-.14-.11-.27-.18-.38h.9v-.53h-1.46c-.06-.05-.13-.09-.23-.13ZM100.2,78.12c.02-.07.05-.14.08-.21.04-.07.08-.14.14-.21.05-.06.1-.11.17-.16.07,0,.18.02.32.04.16.02.35.03.56.05.21.01.44.03.69.04.24.01.49.02.73.02.19,0,.36.01.51.04.15.03.27.06.38.11.1.05.17.11.22.18.05.07.08.16.08.26,0,.09-.04.19-.13.28-.09.1-.22.19-.4.27-.18.08-.4.15-.66.2-.26.05-.55.08-.88.08-.31,0-.58-.02-.81-.07-.23-.05-.43-.11-.57-.18-.15-.07-.26-.16-.33-.25-.07-.09-.11-.18-.11-.28,0-.06,0-.13.03-.2ZM101.23,72.83c.11-.06.25-.1.4-.1s.31.04.46.12c.15.08.27.2.38.35.11.15.2.33.26.53.06.2.1.43.1.67,0,.16-.03.32-.08.46-.06.14-.13.27-.23.37s-.2.19-.33.25c-.27.13-.58.11-.82-.02-.13-.08-.25-.19-.34-.32-.1-.14-.17-.3-.23-.49-.05-.19-.08-.4-.08-.62,0-.18.02-.36.05-.52.04-.16.09-.3.17-.41.07-.11.17-.2.28-.27Z" fill="#fff"/><polygon points="112.43 70.98 111.54 70.98 108.21 73.79 108.21 70.98 107.01 70.98 107.01 77.57 108.21 77.57 108.21 74.35 111.72 77.56 111.73 77.57 113.29 77.57 109.12 73.76 112.43 70.98" fill="#fff"/><path d="M118.02,73.09c-.24-.23-.53-.41-.85-.53-.33-.13-.69-.19-1.07-.19s-.75.07-1.08.21c-.33.14-.62.34-.85.58-.24.24-.43.54-.56.87s-.2.69-.2,1.06.07.7.2,1.01c.14.31.32.59.56.82.24.23.52.42.85.56s.69.2,1.08.2.75-.07,1.08-.22c.33-.15.61-.35.85-.6.24-.25.43-.55.56-.89s.2-.71.2-1.09c0-.35-.07-.68-.2-.98-.13-.3-.32-.57-.56-.8ZM116.79,77.06c-.15.09-.32.14-.51.14-.26,0-.5-.07-.7-.2-.21-.13-.38-.32-.52-.55-.14-.23-.26-.51-.33-.82-.07-.31-.11-.66-.11-1.01,0-.24.04-.48.1-.69.07-.22.16-.41.28-.57.11-.16.25-.29.4-.38.15-.09.3-.14.45-.14.31,0,.58.07.79.2.22.13.39.31.53.54.14.23.24.5.3.81.06.31.09.65.09,1.01,0,.25-.03.48-.1.7-.06.22-.15.41-.27.58-.11.16-.25.3-.4.39Z" fill="#fff"/><path d="M123.76,72.82c-.12-.14-.26-.26-.42-.34-.16-.08-.33-.12-.52-.12-.34,0-.68.09-1.02.26-.3.15-.58.38-.86.67v-.92h-.34l-.77.3v4.91h1.11v-3.74c.1-.1.21-.19.32-.27.12-.09.24-.16.36-.22.12-.06.24-.11.35-.15.24-.07.44-.07.61,0,.09.04.17.1.23.18.07.08.12.18.16.3.04.12.06.26.06.42v3.47h1.1v-3.64c0-.21-.03-.42-.1-.61-.07-.19-.16-.36-.28-.5Z" fill="#fff"/><path d="M130.36,72.72h-1.46c-.06-.05-.13-.09-.23-.13-.1-.04-.21-.08-.34-.12-.13-.03-.27-.06-.41-.08-.15-.02-.3-.03-.45-.03-.31,0-.61.05-.88.14-.27.1-.51.23-.71.4-.2.17-.37.37-.48.59-.12.23-.17.47-.17.72,0,.34.1.65.3.92.17.23.4.42.69.56-.1.04-.19.1-.28.16-.12.08-.24.18-.33.28-.1.1-.17.21-.23.33-.06.12-.09.23-.09.34,0,.08.02.15.06.22.04.07.09.13.15.18.06.06.13.1.22.15.05.03.11.05.17.07-.1.08-.2.16-.31.25-.13.11-.25.22-.36.34-.11.12-.2.24-.27.37-.07.13-.11.27-.11.42,0,.17.05.32.16.46.11.13.27.25.48.34.21.09.47.16.79.21.31.05.68.07,1.09.07.47,0,.89-.05,1.26-.14.37-.09.69-.22.95-.39.26-.17.46-.38.6-.62.14-.24.21-.52.21-.82,0-.17-.03-.32-.08-.46-.05-.14-.14-.26-.27-.36-.12-.1-.29-.18-.49-.24-.2-.06-.46-.09-.75-.11l-1.85-.08c-.19-.01-.34-.04-.44-.1-.09-.05-.13-.11-.13-.19,0-.09.03-.19.09-.28.06-.09.12-.17.21-.24.09.03.2.05.32.07.14.02.27.03.4.03.35,0,.67-.04.95-.13.29-.08.54-.21.75-.36.21-.16.37-.35.49-.57.12-.22.18-.47.18-.74,0-.17-.03-.35-.09-.52-.05-.14-.11-.27-.18-.38h.9v-.53ZM125.92,78.12c.02-.07.05-.15.08-.21.04-.07.08-.14.14-.21.05-.06.1-.11.17-.16.07,0,.18.02.32.04.16.02.35.03.56.05.21.01.44.03.69.04.24.01.49.02.73.02.19,0,.36.01.51.04.15.03.27.06.38.11.1.05.17.11.22.18.05.07.08.16.08.26,0,.09-.04.19-.13.28-.09.1-.22.19-.4.27-.18.08-.4.15-.66.2-.26.05-.55.08-.88.08-.31,0-.58-.02-.81-.07-.23-.05-.43-.11-.58-.18s-.26-.16-.33-.25c-.07-.09-.11-.18-.11-.28,0-.06,0-.13.03-.2ZM126.94,72.83c.11-.06.25-.1.4-.1s.31.04.46.12c.15.08.27.2.38.35.11.15.2.33.26.53.06.2.1.43.1.67,0,.16-.03.32-.08.46-.06.14-.13.27-.23.37s-.2.19-.33.25c-.27.13-.58.11-.82-.02-.13-.08-.25-.19-.34-.32-.1-.14-.17-.3-.23-.49-.05-.19-.08-.4-.08-.62,0-.18.02-.36.05-.52.04-.16.09-.3.17-.41.07-.11.17-.2.28-.27Z" fill="#fff"/><path d="M132.1.26s0,0,0,0c-.01,0-.03,0-.04,0L61.01,18.73c-1.65.43-3.83,1.89-4.86,3.24l-13.72,18.11c-1.03,1.35-.51,2.76,1.15,3.12l15.51,3.35c-.61-.4-1.18-.86-1.67-1.38-.94-.99-1.64-2.17-2.1-3.55-.46-1.38-.62-2.9-.47-4.56.15-1.7.58-3.24,1.29-4.62.71-1.38,1.63-2.55,2.76-3.52,1.13-.97,2.42-1.71,3.87-2.23,1.45-.52,2.99-.78,4.61-.78,1.51,0,2.96.27,4.37.79,1.41.53,2.52,1.3,3.33,2.32l-3.8,3.48c-.42-.66-1.01-1.15-1.77-1.47-.75-.32-1.54-.48-2.37-.48-.9,0-1.75.16-2.53.49-.78.33-1.47.78-2.06,1.36-.59.58-1.07,1.26-1.44,2.05-.37.79-.6,1.65-.68,2.59-.08.96-.01,1.84.22,2.64.23.8.59,1.48,1.07,2.05.48.57,1.08,1.01,1.79,1.33.71.32,1.51.48,2.4.48,1.02,0,1.93-.2,2.73-.6.8-.4,1.45-.92,1.97-1.56l3.29,3.36c-1.04,1.08-2.28,1.93-3.72,2.56-1.06.46-2.22.75-3.48.88l26.11,5.65.75-3.42c.23.08.49.14.78.19.29.05.55.07.79.07.76,0,1.33-.17,1.7-.52.37-.35.71-.84,1-1.48l.59-1.23-4.98-14.69h5.48l2.5,9.6h.09l3.82-9.6h5.24l-8.22,17.18c-.37.78-.77,1.47-1.19,2.08-.42.61-.91,1.13-1.46,1.56-.55.43-1.18.75-1.89.97-.25.08-.53.14-.81.19l24.22,5.24c1.59.34,3.22-.61,3.72-2.13l16.95-46.71c2.27-6.26-3.38-12.51-9.82-10.89ZM79.8,47.7h-4.94l1.31-14.93h4.94l-1.31,14.93ZM81.56,29.07c-.18.33-.4.61-.68.85-.27.24-.59.43-.95.57-.36.14-.74.21-1.12.21-.8,0-1.45-.26-1.95-.79-.5-.53-.71-1.16-.65-1.9.03-.36.13-.7.3-1.03.17-.33.39-.62.68-.85.28-.24.6-.43.95-.58.35-.15.73-.22,1.13-.22.38,0,.74.07,1.08.21.34.14.62.33.85.57.23.24.41.52.53.85.12.33.17.68.13,1.06-.03.38-.14.73-.32,1.06ZM92.75,36.43h-3.52l-.5,5.72c-.06.7.03,1.23.27,1.58.24.35.71.53,1.41.53.24,0,.5-.02.77-.06.27-.04.51-.1.69-.18l-.25,3.6c-.35.12-.79.22-1.32.31-.53.09-1.06.14-1.58.14-1,0-1.84-.13-2.5-.38-.66-.25-1.18-.61-1.55-1.08-.37-.47-.62-1.03-.74-1.68-.12-.65-.15-1.38-.08-2.18l.55-6.31h-2.41l.32-3.66h2.38l.34-3.93h4.85l-.34,3.93h3.52l-.32,3.66ZM123.29,47.64c-1.17.42-2.45.63-3.83.63s-2.65-.21-3.74-.63c-1.09-.42-1.99-1-2.71-1.75-.72-.75-1.24-1.65-1.57-2.7-.33-1.05-.44-2.21-.33-3.49l1.16-13.22h5.12l-1.12,12.8c-.05.58-.02,1.13.08,1.65.11.52.29.98.57,1.39.28.41.66.73,1.15.97.49.24,1.1.36,1.82.36s1.35-.12,1.88-.36c.53-.24.98-.56,1.33-.97.36-.41.63-.87.81-1.39.19-.52.3-1.07.36-1.65l1.12-12.8h5.15l-1.16,13.22c-.11,1.28-.43,2.44-.95,3.49-.52,1.05-1.22,1.95-2.09,2.7-.87.75-1.89,1.33-3.06,1.75Z" fill="#fff"/></svg>